<svg width="40" height="33" viewBox="0 0 40 33" fill="none" xmlns="http://www.w3.org/2000/svg">
<path d="M0.485352 2.78571C0.485352 1.68114 1.38078 0.785706 2.48535 0.785706H37.4854C38.5899 0.785706 39.4854 1.68114 39.4854 2.78571V30.7857C39.4854 31.8903 38.5899 32.7857 37.4854 32.7857H2.48535C1.38078 32.7857 0.485352 31.8903 0.485352 30.7857V2.78571Z" fill="white"/>
<g clip-path="url(#clip0)">
<path d="M22.2275 18.3404H17.7432V17.233H22.2275V18.3404Z" fill="#40A9FF"/>
</g>
<path d="M2.48535 1.78571H37.4854V-0.214294H2.48535V1.78571ZM38.4854 2.78571V30.7857H40.4854V2.78571H38.4854ZM37.4854 31.7857H2.48535V33.7857H37.4854V31.7857ZM1.48535 30.7857V2.78571H-0.514648V30.7857H1.48535ZM2.48535 31.7857C1.93307 31.7857 1.48535 31.338 1.48535 30.7857H-0.514648C-0.514648 32.4426 0.828497 33.7857 2.48535 33.7857V31.7857ZM38.4854 30.7857C38.4854 31.338 38.0376 31.7857 37.4854 31.7857V33.7857C39.1422 33.7857 40.4854 32.4426 40.4854 30.7857H38.4854ZM37.4854 1.78571C38.0376 1.78571 38.4854 2.23342 38.4854 2.78571H40.4854C40.4854 1.12885 39.1422 -0.214294 37.4854 -0.214294V1.78571ZM2.48535 -0.214294C0.828497 -0.214294 -0.514648 1.12885 -0.514648 2.78571H1.48535C1.48535 2.23342 1.93307 1.78571 2.48535 1.78571V-0.214294Z" fill="#40A9FF"/>
<defs>
<clipPath id="clip0">
<rect x="16.4854" y="5.78571" width="7" height="22" fill="white"/>
</clipPath>
</defs>
</svg>
