<svg width="42" height="33" viewBox="0 0 42 33" fill="none" xmlns="http://www.w3.org/2000/svg">
<path d="M0.818848 2.78571C0.818848 1.68114 1.71428 0.785706 2.81885 0.785706H39.8188C40.9234 0.785706 41.8188 1.68114 41.8188 2.78571V30.7857C41.8188 31.8903 40.9234 32.7857 39.8188 32.7857H2.81885C1.71428 32.7857 0.818848 31.8903 0.818848 30.7857V2.78571Z" fill="white"/>
<g clip-path="url(#clip0)">
<path d="M21.8657 18.4498V21.5806H20.7583V18.4498H17.8394V17.3423H20.7583V14.2867H21.8657V17.3423H24.7847V18.4498H21.8657Z" fill="#40A9FF"/>
</g>
<path d="M2.81885 1.78571H39.8188V-0.214294H2.81885V1.78571ZM40.8188 2.78571V30.7857H42.8188V2.78571H40.8188ZM39.8188 31.7857H2.81885V33.7857H39.8188V31.7857ZM1.81885 30.7857V2.78571H-0.181152V30.7857H1.81885ZM2.81885 31.7857C2.26656 31.7857 1.81885 31.338 1.81885 30.7857H-0.181152C-0.181152 32.4426 1.16199 33.7857 2.81885 33.7857V31.7857ZM40.8188 30.7857C40.8188 31.338 40.3711 31.7857 39.8188 31.7857V33.7857C41.4757 33.7857 42.8188 32.4426 42.8188 30.7857H40.8188ZM39.8188 1.78571C40.3711 1.78571 40.8188 2.23342 40.8188 2.78571H42.8188C42.8188 1.12885 41.4757 -0.214294 39.8188 -0.214294V1.78571ZM2.81885 -0.214294C1.16199 -0.214294 -0.181152 1.12885 -0.181152 2.78571H1.81885C1.81885 2.23342 2.26656 1.78571 2.81885 1.78571V-0.214294Z" fill="#40A9FF"/>
<defs>
<clipPath id="clip0">
<rect x="16.8188" y="5.78571" width="9" height="22" fill="white"/>
</clipPath>
</defs>
</svg>
